<svg xmlns="http://www.w3.org/2000/svg" width="64" height="64" viewBox="0 0 24 24" fill="none" stroke="currentColor" stroke-width="1.5" stroke-linecap="round" stroke-linejoin="round">
  <path d="M19.4 15a1.65 1.65 0 0 0 .33 1.82l.06.06a2 2 0 0 1-2.83 2.83l-.06-.06a1.65 1.65 0 0 0-1.82-.33 1.65 1.65 0 0 0-1 1.51V21a2 2 0 0 1-4 0v-.09a1.65 1.65 0 0 0-1-1.51 1.65 1.65 0 0 0-1.82.33l-.06.06a2 2 0 0 1-2.83-2.83l.06-.06a1.65 1.65 0 0 0 .33-1.82 1.65 1.65 0 0 0-1.51-1H3a2 2 0 0 1 0-4h.09c.7 0 1.22-.51 1.51-1A1.65 1.65 0 0 0 3.9 6.6l-.06-.06A2 2 0 0 1 6.67 3.7l.06.06c.5.34 1.11.47 1.7.35.58-.12 1.03-.55 1.2-1.12L9.8 2a2 2 0 0 1 3.99 0l-.03.09c.17.57.62 1 1.2 1.12.59.12 1.2-.01 1.7-.35l.06-.06a2 2 0 0 1 2.83 2.83l-.06.06c-.34.5-.47 1.11-.35 1.7.12.58.55 1.03 1.12 1.2L22 9.2a2 2 0 0 1 0 3.99l-.09-.03c-.57.17-1 .62-1.12 1.2-.12.59.01 1.2.35 1.7z"/>
  <circle cx="12" cy="12" r="3"/>
</svg>
